<mxfile host="app.diagrams.net" modified="2022-02-21T22:41:43.210Z" agent="5.0 (Windows NT 10.0; Win64; x64) AppleWebKit/537.36 (KHTML, like Gecko) Chrome/98.0.4758.102 Safari/537.36 Edg/98.0.1108.56" etag="C0iR23SQx5e5Q_GunHqG" version="16.6.2" type="github">
  <diagram id="vcRDqsTvWPjwFKle9hRK" name="Page-1">
    <mxGraphModel dx="1886" dy="932" grid="1" gridSize="10" guides="1" tooltips="1" connect="1" arrows="1" fold="1" page="1" pageScale="1" pageWidth="827" pageHeight="1169" math="0" shadow="0">
      <root>
        <mxCell id="0" />
        <mxCell id="1" parent="0" />
        <mxCell id="nZsSaC5VvG-aifPR8z2--1" value="" style="ellipse;whiteSpace=wrap;html=1;" parent="1" vertex="1">
          <mxGeometry x="310" y="20" width="166" height="100" as="geometry" />
        </mxCell>
        <mxCell id="nZsSaC5VvG-aifPR8z2--4" value="A data do evento é&lt;br&gt;&amp;nbsp;posterior&lt;br&gt;&amp;nbsp;a&lt;br&gt;&amp;nbsp;data atual?" style="rhombus;whiteSpace=wrap;html=1;" parent="1" vertex="1">
          <mxGeometry x="305" y="240" width="176" height="160" as="geometry" />
        </mxCell>
        <mxCell id="nZsSaC5VvG-aifPR8z2--6" value="Início" style="text;html=1;strokeColor=none;fillColor=none;align=center;verticalAlign=middle;whiteSpace=wrap;rounded=0;" parent="1" vertex="1">
          <mxGeometry x="363" y="55" width="60" height="30" as="geometry" />
        </mxCell>
        <mxCell id="61EVhddB8_LkF_lZFSpA-1" value="Informe a data do evento:" style="shape=display;whiteSpace=wrap;html=1;hachureGap=4;" parent="1" vertex="1">
          <mxGeometry x="310" y="130" width="152" height="90" as="geometry" />
        </mxCell>
        <mxCell id="61EVhddB8_LkF_lZFSpA-18" value="" style="endArrow=none;html=1;rounded=0;startSize=14;endSize=14;sourcePerimeterSpacing=8;targetPerimeterSpacing=8;curved=1;entryX=0.5;entryY=1;entryDx=0;entryDy=0;exitX=0.544;exitY=-0.041;exitDx=0;exitDy=0;exitPerimeter=0;" parent="1" source="61EVhddB8_LkF_lZFSpA-1" target="nZsSaC5VvG-aifPR8z2--1" edge="1">
          <mxGeometry width="50" height="50" relative="1" as="geometry">
            <mxPoint x="390" y="180" as="sourcePoint" />
            <mxPoint x="440" y="130" as="targetPoint" />
          </mxGeometry>
        </mxCell>
        <mxCell id="61EVhddB8_LkF_lZFSpA-21" value="" style="endArrow=none;html=1;rounded=0;startSize=14;endSize=14;sourcePerimeterSpacing=8;targetPerimeterSpacing=8;curved=1;entryX=0.548;entryY=1.012;entryDx=0;entryDy=0;entryPerimeter=0;exitX=0.5;exitY=0;exitDx=0;exitDy=0;" parent="1" source="nZsSaC5VvG-aifPR8z2--4" target="61EVhddB8_LkF_lZFSpA-1" edge="1">
          <mxGeometry width="50" height="50" relative="1" as="geometry">
            <mxPoint x="430" y="330" as="sourcePoint" />
            <mxPoint x="480" y="280" as="targetPoint" />
          </mxGeometry>
        </mxCell>
        <mxCell id="61EVhddB8_LkF_lZFSpA-23" value="" style="endArrow=classic;html=1;rounded=0;startSize=14;endSize=14;sourcePerimeterSpacing=8;targetPerimeterSpacing=8;curved=1;exitX=0;exitY=0.5;exitDx=0;exitDy=0;" parent="1" source="nZsSaC5VvG-aifPR8z2--4" edge="1">
          <mxGeometry width="50" height="50" relative="1" as="geometry">
            <mxPoint x="430" y="330" as="sourcePoint" />
            <mxPoint x="240" y="325" as="targetPoint" />
          </mxGeometry>
        </mxCell>
        <mxCell id="61EVhddB8_LkF_lZFSpA-25" value="" style="endArrow=classic;html=1;rounded=0;startSize=14;endSize=14;sourcePerimeterSpacing=8;targetPerimeterSpacing=8;curved=1;exitX=1;exitY=0.5;exitDx=0;exitDy=0;" parent="1" source="nZsSaC5VvG-aifPR8z2--4" edge="1">
          <mxGeometry width="50" height="50" relative="1" as="geometry">
            <mxPoint x="430" y="330" as="sourcePoint" />
            <mxPoint x="540" y="325" as="targetPoint" />
          </mxGeometry>
        </mxCell>
        <mxCell id="61EVhddB8_LkF_lZFSpA-29" style="edgeStyle=none;curved=1;rounded=0;orthogonalLoop=1;jettySize=auto;html=1;exitX=0;exitY=0.5;exitDx=0;exitDy=0;exitPerimeter=0;endArrow=open;startSize=14;endSize=14;sourcePerimeterSpacing=8;targetPerimeterSpacing=8;" parent="1" source="61EVhddB8_LkF_lZFSpA-26" edge="1">
          <mxGeometry relative="1" as="geometry">
            <mxPoint x="168" y="317.4999999999999" as="targetPoint" />
          </mxGeometry>
        </mxCell>
        <mxCell id="61EVhddB8_LkF_lZFSpA-26" value="A data solicitada não pode ser cadastrada" style="shape=display;whiteSpace=wrap;html=1;hachureGap=4;" parent="1" vertex="1">
          <mxGeometry x="90" y="292.5" width="140" height="65" as="geometry" />
        </mxCell>
        <mxCell id="61EVhddB8_LkF_lZFSpA-27" value="Informe sua idade:" style="shape=display;whiteSpace=wrap;html=1;hachureGap=4;" parent="1" vertex="1">
          <mxGeometry x="550" y="297.5" width="120" height="55" as="geometry" />
        </mxCell>
        <mxCell id="61EVhddB8_LkF_lZFSpA-30" value="Sim" style="text;strokeColor=none;fillColor=none;html=1;align=center;verticalAlign=middle;whiteSpace=wrap;rounded=0;hachureGap=4;" parent="1" vertex="1">
          <mxGeometry x="470" y="292.5" width="60" height="30" as="geometry" />
        </mxCell>
        <mxCell id="61EVhddB8_LkF_lZFSpA-31" value="Não" style="text;strokeColor=none;fillColor=none;html=1;align=center;verticalAlign=middle;whiteSpace=wrap;rounded=0;hachureGap=4;" parent="1" vertex="1">
          <mxGeometry x="250" y="290" width="60" height="30" as="geometry" />
        </mxCell>
        <mxCell id="61EVhddB8_LkF_lZFSpA-32" value="" style="endArrow=none;html=1;rounded=0;startSize=14;endSize=14;sourcePerimeterSpacing=8;targetPerimeterSpacing=8;curved=1;entryX=0;entryY=0;entryDx=61.249999999999986;entryDy=54.99999999999999;entryPerimeter=0;" parent="1" target="61EVhddB8_LkF_lZFSpA-27" edge="1">
          <mxGeometry width="50" height="50" relative="1" as="geometry">
            <mxPoint x="611" y="380" as="sourcePoint" />
            <mxPoint x="660" y="340" as="targetPoint" />
          </mxGeometry>
        </mxCell>
        <mxCell id="61EVhddB8_LkF_lZFSpA-33" value="&lt;br&gt;Idade" style="shape=manualInput;whiteSpace=wrap;html=1;hachureGap=4;" parent="1" vertex="1">
          <mxGeometry x="560" y="357.5" width="100" height="70" as="geometry" />
        </mxCell>
        <mxCell id="61EVhddB8_LkF_lZFSpA-34" value="" style="endArrow=none;html=1;rounded=0;startSize=14;endSize=14;sourcePerimeterSpacing=8;targetPerimeterSpacing=8;curved=1;entryX=0.5;entryY=1;entryDx=0;entryDy=0;" parent="1" target="61EVhddB8_LkF_lZFSpA-33" edge="1">
          <mxGeometry width="50" height="50" relative="1" as="geometry">
            <mxPoint x="610" y="460" as="sourcePoint" />
            <mxPoint x="660" y="430" as="targetPoint" />
          </mxGeometry>
        </mxCell>
        <mxCell id="61EVhddB8_LkF_lZFSpA-37" style="edgeStyle=none;curved=1;rounded=0;orthogonalLoop=1;jettySize=auto;html=1;exitX=1;exitY=0.5;exitDx=0;exitDy=0;endArrow=open;startSize=14;endSize=14;sourcePerimeterSpacing=8;targetPerimeterSpacing=8;" parent="1" source="61EVhddB8_LkF_lZFSpA-35" edge="1">
          <mxGeometry relative="1" as="geometry">
            <mxPoint x="622" y="500" as="targetPoint" />
          </mxGeometry>
        </mxCell>
        <mxCell id="61EVhddB8_LkF_lZFSpA-35" value="Idade &amp;gt;=18?" style="rhombus;whiteSpace=wrap;html=1;hachureGap=4;" parent="1" vertex="1">
          <mxGeometry x="560" y="440" width="100" height="100" as="geometry" />
        </mxCell>
        <mxCell id="61EVhddB8_LkF_lZFSpA-39" value="" style="endArrow=classic;html=1;rounded=0;startSize=14;endSize=14;sourcePerimeterSpacing=8;targetPerimeterSpacing=8;curved=1;exitX=0;exitY=0.5;exitDx=0;exitDy=0;" parent="1" source="61EVhddB8_LkF_lZFSpA-35" edge="1">
          <mxGeometry width="50" height="50" relative="1" as="geometry">
            <mxPoint x="510" y="520" as="sourcePoint" />
            <mxPoint x="490" y="490" as="targetPoint" />
          </mxGeometry>
        </mxCell>
        <mxCell id="61EVhddB8_LkF_lZFSpA-40" value="" style="endArrow=classic;html=1;rounded=0;startSize=14;endSize=14;sourcePerimeterSpacing=8;targetPerimeterSpacing=8;curved=1;exitX=1;exitY=0.5;exitDx=0;exitDy=0;" parent="1" source="61EVhddB8_LkF_lZFSpA-35" edge="1">
          <mxGeometry width="50" height="50" relative="1" as="geometry">
            <mxPoint x="660" y="530" as="sourcePoint" />
            <mxPoint x="740" y="490" as="targetPoint" />
          </mxGeometry>
        </mxCell>
        <mxCell id="61EVhddB8_LkF_lZFSpA-41" value="Não foi possível&lt;br&gt;&amp;nbsp;completar o &lt;br&gt;cadastro, &lt;br&gt;idade inválida!" style="shape=display;whiteSpace=wrap;html=1;hachureGap=4;" parent="1" vertex="1">
          <mxGeometry x="750" y="460" width="150" height="60" as="geometry" />
        </mxCell>
        <mxCell id="61EVhddB8_LkF_lZFSpA-44" value="Não" style="text;html=1;strokeColor=none;fillColor=none;align=center;verticalAlign=middle;whiteSpace=wrap;rounded=0;hachureGap=4;" parent="1" vertex="1">
          <mxGeometry x="670" y="470" width="50" height="20" as="geometry" />
        </mxCell>
        <mxCell id="61EVhddB8_LkF_lZFSpA-45" value="Sim" style="text;html=1;strokeColor=none;fillColor=none;align=center;verticalAlign=middle;whiteSpace=wrap;rounded=0;hachureGap=4;" parent="1" vertex="1">
          <mxGeometry x="510" y="470" width="50" height="20" as="geometry" />
        </mxCell>
        <mxCell id="61EVhddB8_LkF_lZFSpA-46" value="Liste o nome dos&lt;br&gt;participantes:" style="shape=display;whiteSpace=wrap;html=1;hachureGap=4;" parent="1" vertex="1">
          <mxGeometry x="360" y="460" width="120" height="60" as="geometry" />
        </mxCell>
        <mxCell id="61EVhddB8_LkF_lZFSpA-48" value="" style="endArrow=none;html=1;rounded=0;startSize=14;endSize=14;sourcePerimeterSpacing=8;targetPerimeterSpacing=8;curved=1;entryX=0;entryY=0;entryDx=59.999999999999986;entryDy=59.99999999999999;entryPerimeter=0;" parent="1" target="61EVhddB8_LkF_lZFSpA-46" edge="1">
          <mxGeometry width="50" height="50" relative="1" as="geometry">
            <mxPoint x="420" y="560" as="sourcePoint" />
            <mxPoint x="450" y="540" as="targetPoint" />
          </mxGeometry>
        </mxCell>
        <mxCell id="61EVhddB8_LkF_lZFSpA-49" value="&lt;br&gt;Nomes" style="shape=manualInput;whiteSpace=wrap;html=1;hachureGap=4;" parent="1" vertex="1">
          <mxGeometry x="370" y="540" width="92" height="80" as="geometry" />
        </mxCell>
        <mxCell id="61EVhddB8_LkF_lZFSpA-50" value="" style="endArrow=none;html=1;rounded=0;startSize=14;endSize=14;sourcePerimeterSpacing=8;targetPerimeterSpacing=8;curved=1;" parent="1" edge="1">
          <mxGeometry width="50" height="50" relative="1" as="geometry">
            <mxPoint x="420" y="660" as="sourcePoint" />
            <mxPoint x="420" y="620" as="targetPoint" />
          </mxGeometry>
        </mxCell>
        <mxCell id="61EVhddB8_LkF_lZFSpA-53" style="edgeStyle=none;curved=1;rounded=0;orthogonalLoop=1;jettySize=auto;html=1;exitX=0;exitY=0.5;exitDx=0;exitDy=0;endArrow=open;startSize=14;endSize=14;sourcePerimeterSpacing=8;targetPerimeterSpacing=8;" parent="1" source="61EVhddB8_LkF_lZFSpA-51" edge="1">
          <mxGeometry relative="1" as="geometry">
            <mxPoint x="422" y="695" as="targetPoint" />
          </mxGeometry>
        </mxCell>
        <mxCell id="61EVhddB8_LkF_lZFSpA-51" value="&amp;nbsp;nomesLista &amp;lt; 100?" style="rhombus;whiteSpace=wrap;html=1;hachureGap=4;" parent="1" vertex="1">
          <mxGeometry x="344" y="640" width="152" height="140" as="geometry" />
        </mxCell>
        <mxCell id="61EVhddB8_LkF_lZFSpA-54" value="" style="endArrow=classic;html=1;rounded=0;startSize=14;endSize=14;sourcePerimeterSpacing=8;targetPerimeterSpacing=8;curved=1;" parent="1" edge="1">
          <mxGeometry width="50" height="50" relative="1" as="geometry">
            <mxPoint x="495" y="709.63" as="sourcePoint" />
            <mxPoint x="575" y="709.63" as="targetPoint" />
          </mxGeometry>
        </mxCell>
        <mxCell id="61EVhddB8_LkF_lZFSpA-55" value="" style="endArrow=classic;html=1;rounded=0;startSize=14;endSize=14;targetPerimeterSpacing=8;curved=1;startArrow=none;" parent="1" edge="1">
          <mxGeometry width="50" height="50" relative="1" as="geometry">
            <mxPoint x="420" y="810" as="sourcePoint" />
            <mxPoint x="420" y="850" as="targetPoint" />
          </mxGeometry>
        </mxCell>
        <mxCell id="61EVhddB8_LkF_lZFSpA-56" value="Sim" style="text;html=1;strokeColor=none;fillColor=none;align=center;verticalAlign=middle;whiteSpace=wrap;rounded=0;hachureGap=4;" parent="1" vertex="1">
          <mxGeometry x="354" y="790" width="60" height="30" as="geometry" />
        </mxCell>
        <mxCell id="61EVhddB8_LkF_lZFSpA-57" value="" style="endArrow=none;html=1;rounded=0;startSize=14;endSize=14;sourcePerimeterSpacing=8;curved=1;exitX=0.5;exitY=1;exitDx=0;exitDy=0;" parent="1" source="61EVhddB8_LkF_lZFSpA-51" edge="1">
          <mxGeometry width="50" height="50" relative="1" as="geometry">
            <mxPoint x="420" y="780" as="sourcePoint" />
            <mxPoint x="420" y="810" as="targetPoint" />
          </mxGeometry>
        </mxCell>
        <mxCell id="61EVhddB8_LkF_lZFSpA-58" value="Não" style="text;html=1;strokeColor=none;fillColor=none;align=center;verticalAlign=middle;whiteSpace=wrap;rounded=0;hachureGap=4;" parent="1" vertex="1">
          <mxGeometry x="490" y="680" width="60" height="30" as="geometry" />
        </mxCell>
        <mxCell id="61EVhddB8_LkF_lZFSpA-59" value="Seu evento foi cadastrado &lt;br&gt;com sucesso!" style="shape=display;whiteSpace=wrap;html=1;hachureGap=4;" parent="1" vertex="1">
          <mxGeometry x="328.5" y="860" width="175" height="100" as="geometry" />
        </mxCell>
        <mxCell id="61EVhddB8_LkF_lZFSpA-60" value="Não foi possível completar o &lt;br&gt;cadastro, número máximo de&lt;br&gt;&amp;nbsp;participantes foi atingido." style="shape=display;whiteSpace=wrap;html=1;hachureGap=4;" parent="1" vertex="1">
          <mxGeometry x="580" y="670" width="200" height="80" as="geometry" />
        </mxCell>
        <mxCell id="61EVhddB8_LkF_lZFSpA-61" value="Fim" style="ellipse;whiteSpace=wrap;html=1;hachureGap=4;" parent="1" vertex="1">
          <mxGeometry x="750" y="560" width="120" height="80" as="geometry" />
        </mxCell>
        <mxCell id="61EVhddB8_LkF_lZFSpA-66" value="Fim" style="ellipse;whiteSpace=wrap;html=1;hachureGap=4;" parent="1" vertex="1">
          <mxGeometry x="360" y="1010" width="120" height="80" as="geometry" />
        </mxCell>
        <mxCell id="61EVhddB8_LkF_lZFSpA-67" value="" style="endArrow=classic;html=1;rounded=0;startSize=14;endSize=14;sourcePerimeterSpacing=8;targetPerimeterSpacing=8;curved=1;exitX=0.515;exitY=0.981;exitDx=0;exitDy=0;exitPerimeter=0;" parent="1" source="61EVhddB8_LkF_lZFSpA-59" edge="1">
          <mxGeometry width="50" height="50" relative="1" as="geometry">
            <mxPoint x="400" y="1010" as="sourcePoint" />
            <mxPoint x="420" y="1000" as="targetPoint" />
          </mxGeometry>
        </mxCell>
        <mxCell id="61EVhddB8_LkF_lZFSpA-68" value="" style="endArrow=classic;html=1;rounded=0;startSize=14;endSize=14;sourcePerimeterSpacing=8;targetPerimeterSpacing=8;curved=1;exitX=0.422;exitY=1.031;exitDx=0;exitDy=0;exitPerimeter=0;" parent="1" source="61EVhddB8_LkF_lZFSpA-41" edge="1">
          <mxGeometry width="50" height="50" relative="1" as="geometry">
            <mxPoint x="790" y="570" as="sourcePoint" />
            <mxPoint x="813" y="550" as="targetPoint" />
          </mxGeometry>
        </mxCell>
        <mxCell id="61EVhddB8_LkF_lZFSpA-69" value="" style="endArrow=classic;html=1;rounded=0;startSize=14;endSize=14;sourcePerimeterSpacing=8;targetPerimeterSpacing=8;curved=1;" parent="1" edge="1">
          <mxGeometry width="50" height="50" relative="1" as="geometry">
            <mxPoint x="700" y="670" as="sourcePoint" />
            <mxPoint x="750" y="620" as="targetPoint" />
          </mxGeometry>
        </mxCell>
        <mxCell id="61EVhddB8_LkF_lZFSpA-70" value="Fim" style="ellipse;whiteSpace=wrap;html=1;hachureGap=4;" parent="1" vertex="1">
          <mxGeometry x="100" y="400" width="120" height="80" as="geometry" />
        </mxCell>
        <mxCell id="61EVhddB8_LkF_lZFSpA-71" value="" style="endArrow=classic;html=1;rounded=0;startSize=14;endSize=14;sourcePerimeterSpacing=8;targetPerimeterSpacing=8;curved=1;exitX=0;exitY=0;exitDx=71.25;exitDy=65;exitPerimeter=0;" parent="1" source="61EVhddB8_LkF_lZFSpA-26" edge="1">
          <mxGeometry width="50" height="50" relative="1" as="geometry">
            <mxPoint x="150" y="410" as="sourcePoint" />
            <mxPoint x="161" y="390" as="targetPoint" />
          </mxGeometry>
        </mxCell>
      </root>
    </mxGraphModel>
  </diagram>
</mxfile>
